<svg width="182" height="54" viewBox="0 0 182 54" fill="none" xmlns="http://www.w3.org/2000/svg">
<path d="M40.4532 17.145V22.5792H39.8406C37.7615 19.9355 34.9769 19.1828 32.2852 19.1828C29.4636 19.1828 27.8485 20.1007 27.8485 21.5694C27.8485 26.3243 42.0868 22.0468 42.0868 31.5565C42.0868 36.3481 38.207 39.1019 31.3942 39.1019C27.83 39.1019 24.9341 38.2941 22.8921 36.8621V31.428H23.5047C25.5838 34.0716 28.7025 34.8243 31.3942 34.8243C35.1811 34.8243 37.186 33.7779 37.186 32.1073C37.186 27.3524 22.9478 31.6299 22.9478 22.1018C22.9478 17.5122 26.3635 14.9053 32.2852 14.9053C35.8494 14.9053 38.4112 15.713 40.4532 17.145Z" fill="#262626"/>
<path fill-rule="evenodd" clip-rule="evenodd" d="M44.1475 27.0036C44.1475 19.9906 49.3824 14.9053 56.6036 14.9053C63.8248 14.9053 69.0597 19.9906 69.0597 27.0036C69.0597 34.0166 63.8248 39.1019 56.6036 39.1019C49.3824 39.1019 44.1475 34.0166 44.1475 27.0036ZM56.6036 34.8243C60.7618 34.8243 63.7505 31.5198 63.7505 27.0036C63.7505 22.4874 60.7618 19.1828 56.6036 19.1828C52.4453 19.1828 49.4566 22.4874 49.4566 27.0036C49.4566 31.5198 52.4453 34.8243 56.6036 34.8243Z" fill="#262626"/>
<path d="M72.0854 15.4375H77.3204V34.2734H87.0662V38.5693H72.0854V15.4375Z" fill="#262626"/>
<path d="M83.7061 15.4375H89.4979L95.6609 30.3997L101.787 15.4375H107.579L97.7029 38.5693H93.5818L83.7061 15.4375Z" fill="#262626"/>
<path d="M114.893 15.4375V38.5693H109.658V15.4375H114.893Z" fill="#262626"/>
<path d="M159.093 15.4375V19.7334H147.045C147.045 22.7809 150.516 24.3781 157.7 24.3781V28.674C153.579 28.674 149.811 28.0866 147.045 26.214V34.2734H159.093V38.5693H141.81V15.4375H159.093Z" fill="#262626"/>
<path fill-rule="evenodd" clip-rule="evenodd" d="M175.54 30.363L176.227 31.2259C177.471 32.8598 179.048 34.1449 180.515 34.1449C180.812 34.1449 180.979 34.0164 181.183 33.7961H181.796V38.5693C177.266 38.5693 175.002 38.1838 171.716 33.9797L167.632 28.7107V38.5693H162.397V15.4375H173.015C178.232 15.4375 182 18.6319 182 22.9829C182 26.7647 179.383 29.647 175.54 30.363ZM173.349 26.2507C175.336 26.2507 176.765 24.8922 176.765 22.9829C176.765 21.0919 175.187 19.7334 173.015 19.7334H167.632V20.0639C167.632 22.9829 169.952 26.2507 173.349 26.2507Z" fill="#262626"/>
<path d="M42.9222 6.3683C41.7342 5.9277 40.6389 5.48709 39.5437 5.10156C30.0948 1.74194 21.3329 2.97197 13.4434 9.14045C8.59831 12.9223 5.55389 17.9342 4.49577 23.9191C3.23346 31.1891 4.66285 37.9818 9.04383 44.0768C9.74925 45.0498 10.4732 46.0045 11.1601 46.9958C9.8235 46.4084 8.69113 45.5639 7.67013 44.5541C3.67898 40.6254 1.17291 35.8889 0.374676 30.418C-0.386428 25.2776 -0.0894112 20.1923 2.21246 15.3824C5.44251 8.64477 10.566 4.00005 17.6573 1.48492C24.9713 -1.122 31.9883 -0.167351 38.7826 3.33914C39.9521 3.94497 41.0473 4.66095 42.1054 5.45037C42.4025 5.67068 42.7366 5.87262 42.9222 6.3683Z" fill="#F05134"/>
<path d="M25.5838 8.07559C16.7476 11.3985 9.80484 22.5054 11.6426 32.7128C12.7936 39.1383 15.9308 44.3705 21.2585 48.2625C26.5677 52.1545 32.6194 53.2377 39.1166 52.5217C37.1303 53.2928 35.0698 53.6967 32.9907 53.8802C27.1246 54.431 21.704 53.0908 16.9332 49.6578C7.4844 42.8651 4.38429 30.3078 9.415 20.5227C12.1624 15.162 16.4134 11.3801 21.9454 8.97516C23.0963 8.47948 24.2658 7.94708 25.5838 8.07559Z" fill="#262626"/>
<path d="M14.5942 35.9624C14.5942 35.9624 23.5975 47.1611 36.6848 47.8771C49.7906 48.5931 58.3855 41.9289 58.3855 41.9289C58.3855 41.9289 54.3758 49.0704 41.5113 50.6676C28.6654 52.2465 19.1794 44.8663 14.5942 36.2745" fill="#F05134"/>
<path d="M136.65 22.4136C134.032 20.2289 131.118 20.0821 127.498 21.9179C127.324 22.0036 127.151 22.0893 126.978 22.1749C126.328 22.5054 125.679 22.8359 125.047 23.1847C124.955 23.2397 124.825 23.2948 124.695 23.3499C124.268 23.5335 123.692 23.7721 123.729 24.4331C123.785 25.3143 124.546 25.7549 125.27 26.0853C126.718 26.7279 127.888 26.122 129.039 25.5529C129.298 25.4244 129.577 25.2775 129.855 25.1674C131.415 24.5065 132.863 24.5248 133.921 25.2408C134.997 25.9568 135.554 27.297 135.499 28.986C135.369 33.0616 131.712 36.2743 127.182 36.3111C124.825 36.3294 122.653 35.4849 120.332 33.6674L119.942 33.3553V33.8326C119.93 33.955 119.924 34.0529 119.924 34.1264C119.905 34.2732 119.887 34.4018 119.961 34.5119C120.109 34.824 120.277 35.0627 120.444 35.2646C122.764 37.8899 125.586 39.2484 128.704 39.2484C129.348 39.2484 130.01 39.1872 130.691 39.0648C134.812 38.3305 137.726 35.8521 139.081 31.8683C140.251 28.4536 139.248 24.5616 136.65 22.4136Z" fill="#F05134"/>
<path d="M125.4 33.5391C126.867 33.5391 128.463 33.0985 130.227 32.2173L130.449 32.1071C131.136 31.7767 131.823 31.4279 132.491 31.0423C132.584 30.9689 132.733 30.9138 132.881 30.8587C133.327 30.6752 133.995 30.3998 133.846 29.592C133.698 28.8209 132.937 28.4721 132.343 28.1967C130.876 27.5358 129.707 28.1233 128.556 28.6924C128.24 28.8577 127.906 29.0229 127.572 29.1514C126.068 29.7389 124.676 29.6654 123.637 28.9494C122.616 28.2335 122.059 26.9851 122.077 25.4062C122.151 21.7896 124.936 18.7604 128.834 18.0628C131.823 17.5304 134.57 18.3566 137.225 20.5596L137.466 20.7799L137.596 20.4678C137.875 19.7885 137.541 19.403 137.355 19.1827C134.589 15.9699 131.248 14.593 127.424 15.0887C123.377 15.6028 120.388 17.8792 118.736 21.6795C117.269 25.0758 118.086 29.1697 120.722 31.6114C122.096 32.8965 123.637 33.5391 125.4 33.5391Z" fill="#F05134"/>
</svg>
